<svg width="25" height="28" viewBox="0 0 25 28" fill="none" xmlns="http://www.w3.org/2000/svg">
<path d="M24.5 22H4.5C4.14638 22 3.80724 22.1405 3.55719 22.3905C3.30714 22.6406 3.16667 22.9797 3.16667 23.3333C3.16667 23.687 3.30714 24.0261 3.55719 24.2761C3.80724 24.5262 4.14638 24.6667 4.5 24.6667H24.5V27.3333H4.5C3.43913 27.3333 2.42172 26.9119 1.67157 26.1618C0.921427 25.4116 0.5 24.3942 0.5 23.3333V3.33334C0.5 2.62609 0.780951 1.94782 1.28105 1.44772C1.78115 0.947623 2.45942 0.666672 3.16667 0.666672H24.5V22ZM3.16667 19.4C3.38267 19.356 3.60533 19.3333 3.83333 19.3333H21.8333V3.33334H3.16667V19.4ZM17.8333 10H7.16667V7.33334H17.8333V10Z" fill="white"/>
</svg>
