<svg width="27" height="28" viewBox="0 0 27 28" fill="none" xmlns="http://www.w3.org/2000/svg">
<path d="M6.8333 7.33332V1.99999C6.8333 1.64637 6.97377 1.30723 7.22382 1.05718C7.47387 0.807132 7.81301 0.666656 8.16663 0.666656H25.5C25.8536 0.666656 26.1927 0.807132 26.4428 1.05718C26.6928 1.30723 26.8333 1.64637 26.8333 1.99999V19.3333C26.8333 19.6869 26.6928 20.0261 26.4428 20.2761C26.1927 20.5262 25.8536 20.6667 25.5 20.6667H20.1666V25.9893C20.1666 26.7333 19.568 27.3333 18.8226 27.3333H1.51063C1.33403 27.3337 1.15911 27.2992 0.995887 27.2317C0.832666 27.1643 0.684365 27.0653 0.559494 26.9405C0.434622 26.8156 0.335637 26.6673 0.268219 26.5041C0.200801 26.3408 0.166277 26.1659 0.166629 25.9893L0.170629 8.67599C0.170629 7.93466 0.769295 7.33332 1.5133 7.33332H6.8333ZM9.49996 7.33332H18.824C19.5653 7.33332 20.1666 7.93199 20.1666 8.67599V18H24.1666V3.33332H9.49996V7.33332ZM17.5 9.99999H2.8373L2.8333 24.6667H17.5V9.99999ZM8.83596 22L4.12263 17.2853L6.00663 15.4L8.83463 18.2293L14.492 12.572L16.3773 14.4573L8.83596 22Z" fill="white"/>
</svg>
