<svg width="25" height="30" viewBox="0 0 25 30" fill="none" xmlns="http://www.w3.org/2000/svg">
<path d="M1.544 2.76801L12.5 0.333344L23.456 2.76801C23.7521 2.83383 24.0169 2.99863 24.2067 3.23522C24.3965 3.4718 24.4999 3.76603 24.5 4.06934V17.3853C24.4999 18.7023 24.1747 19.9989 23.5532 21.16C22.9317 22.3211 22.0332 23.3109 20.9373 24.0413L12.5 29.6667L4.06267 24.0413C2.96703 23.311 2.06861 22.3215 1.44713 21.1606C0.825648 19.9997 0.500315 18.7034 0.5 17.3867V4.06934C0.500052 3.76603 0.603517 3.4718 0.793319 3.23522C0.983122 2.99863 1.24792 2.83383 1.544 2.76801ZM3.16667 5.13868V17.3853C3.16668 18.2633 3.38343 19.1277 3.79768 19.9017C4.21193 20.6758 4.81087 21.3356 5.54133 21.8227L12.5 26.4627L19.4587 21.8227C20.1889 21.3358 20.7878 20.6761 21.202 19.9023C21.6162 19.1285 21.8331 18.2644 21.8333 17.3867V5.13868L12.5 3.06668L3.16667 5.13868ZM12.5 13.6667C11.6159 13.6667 10.7681 13.3155 10.143 12.6904C9.51786 12.0652 9.16667 11.2174 9.16667 10.3333C9.16667 9.44929 9.51786 8.60144 10.143 7.97632C10.7681 7.3512 11.6159 7.00001 12.5 7.00001C13.3841 7.00001 14.2319 7.3512 14.857 7.97632C15.4821 8.60144 15.8333 9.44929 15.8333 10.3333C15.8333 11.2174 15.4821 12.0652 14.857 12.6904C14.2319 13.3155 13.3841 13.6667 12.5 13.6667ZM6.536 20.3333C6.699 18.8657 7.39745 17.5098 8.4977 16.525C9.59795 15.5402 11.0227 14.9957 12.4993 14.9957C13.976 14.9957 15.4007 15.5402 16.501 16.525C17.6012 17.5098 18.2997 18.8657 18.4627 20.3333H6.536Z" fill="white"/>
</svg>
