<svg width="27" height="28" viewBox="0 0 27 28" fill="none" xmlns="http://www.w3.org/2000/svg">
<path d="M4.83337 22H7.50004V24.6667H23.5V3.33332H7.50004V5.99999H4.83337V1.99999C4.83337 1.64637 4.97385 1.30723 5.2239 1.05718C5.47395 0.807132 5.81309 0.666656 6.16671 0.666656H24.8334C25.187 0.666656 25.5261 0.807132 25.7762 1.05718C26.0262 1.30723 26.1667 1.64637 26.1667 1.99999V26C26.1667 26.3536 26.0262 26.6928 25.7762 26.9428C25.5261 27.1928 25.187 27.3333 24.8334 27.3333H6.16671C5.81309 27.3333 5.47395 27.1928 5.2239 26.9428C4.97385 26.6928 4.83337 26.3536 4.83337 26V22ZM7.50004 12.6667H16.8334V15.3333H7.50004V19.3333L0.833374 14L7.50004 8.66666V12.6667Z" fill="white"/>
</svg>
